<mxfile host="Electron" modified="2023-11-24T07:49:32.258Z" agent="Mozilla/5.0 (Windows NT 10.0; Win64; x64) AppleWebKit/537.36 (KHTML, like Gecko) draw.io/22.1.2 Chrome/114.0.5735.289 Electron/25.9.4 Safari/537.36" etag="cbIyR_rxmPF6IMMJV8zP" version="22.1.2" type="device">
  <diagram name="Page-1" id="cmIFybcvpCa8YApIotDS">
    <mxGraphModel dx="712" dy="835" grid="1" gridSize="10" guides="1" tooltips="1" connect="1" arrows="1" fold="1" page="1" pageScale="1" pageWidth="827" pageHeight="1169" math="0" shadow="0">
      <root>
        <mxCell id="0" />
        <mxCell id="1" parent="0" />
        <mxCell id="ajDw7NVQ6zXEcZbBWGFU-1" value="" style="ellipse;html=1;shape=startState;fillColor=#000000;strokeColor=#ff0000;" parent="1" vertex="1">
          <mxGeometry x="390" y="50" width="30" height="30" as="geometry" />
        </mxCell>
        <mxCell id="ajDw7NVQ6zXEcZbBWGFU-2" value="" style="edgeStyle=orthogonalEdgeStyle;html=1;verticalAlign=bottom;endArrow=open;endSize=8;strokeColor=#ff0000;rounded=0;" parent="1" source="ajDw7NVQ6zXEcZbBWGFU-1" edge="1">
          <mxGeometry relative="1" as="geometry">
            <mxPoint x="405" y="140" as="targetPoint" />
          </mxGeometry>
        </mxCell>
        <mxCell id="ajDw7NVQ6zXEcZbBWGFU-3" value="Saisir un nombre" style="rounded=1;whiteSpace=wrap;html=1;arcSize=40;fontColor=#000000;fillColor=#ffffc0;strokeColor=#ff0000;" parent="1" vertex="1">
          <mxGeometry x="345" y="140" width="120" height="40" as="geometry" />
        </mxCell>
        <mxCell id="ajDw7NVQ6zXEcZbBWGFU-4" value="" style="edgeStyle=orthogonalEdgeStyle;html=1;verticalAlign=bottom;endArrow=open;endSize=8;strokeColor=#ff0000;rounded=0;" parent="1" source="ajDw7NVQ6zXEcZbBWGFU-3" edge="1">
          <mxGeometry relative="1" as="geometry">
            <mxPoint x="405" y="240" as="targetPoint" />
          </mxGeometry>
        </mxCell>
        <mxCell id="ajDw7NVQ6zXEcZbBWGFU-5" value="Lire nombre" style="rounded=1;whiteSpace=wrap;html=1;arcSize=40;fontColor=#000000;fillColor=#ffffc0;strokeColor=#ff0000;" parent="1" vertex="1">
          <mxGeometry x="345" y="240" width="120" height="40" as="geometry" />
        </mxCell>
        <mxCell id="ajDw7NVQ6zXEcZbBWGFU-6" value="" style="edgeStyle=orthogonalEdgeStyle;html=1;verticalAlign=bottom;endArrow=open;endSize=8;strokeColor=#ff0000;rounded=0;" parent="1" source="ajDw7NVQ6zXEcZbBWGFU-5" edge="1">
          <mxGeometry relative="1" as="geometry">
            <mxPoint x="405" y="340" as="targetPoint" />
          </mxGeometry>
        </mxCell>
        <mxCell id="ajDw7NVQ6zXEcZbBWGFU-10" style="edgeStyle=orthogonalEdgeStyle;rounded=0;orthogonalLoop=1;jettySize=auto;html=1;" parent="1" source="ajDw7NVQ6zXEcZbBWGFU-7" edge="1">
          <mxGeometry relative="1" as="geometry">
            <mxPoint x="405" y="450.0000000000001" as="targetPoint" />
          </mxGeometry>
        </mxCell>
        <mxCell id="ajDw7NVQ6zXEcZbBWGFU-11" value="Oui" style="edgeLabel;html=1;align=center;verticalAlign=middle;resizable=0;points=[];" parent="ajDw7NVQ6zXEcZbBWGFU-10" vertex="1" connectable="0">
          <mxGeometry x="-0.6429" y="-1" relative="1" as="geometry">
            <mxPoint as="offset" />
          </mxGeometry>
        </mxCell>
        <mxCell id="ajDw7NVQ6zXEcZbBWGFU-15" style="edgeStyle=orthogonalEdgeStyle;rounded=0;orthogonalLoop=1;jettySize=auto;html=1;" parent="1" source="ajDw7NVQ6zXEcZbBWGFU-7" edge="1">
          <mxGeometry relative="1" as="geometry">
            <mxPoint x="560" y="370" as="targetPoint" />
          </mxGeometry>
        </mxCell>
        <mxCell id="ajDw7NVQ6zXEcZbBWGFU-16" value="Non" style="edgeLabel;html=1;align=center;verticalAlign=middle;resizable=0;points=[];" parent="ajDw7NVQ6zXEcZbBWGFU-15" vertex="1" connectable="0">
          <mxGeometry x="-0.7149" y="-1" relative="1" as="geometry">
            <mxPoint as="offset" />
          </mxGeometry>
        </mxCell>
        <mxCell id="ajDw7NVQ6zXEcZbBWGFU-7" value="nombre &amp;gt; 0" style="rhombus;whiteSpace=wrap;html=1;fontColor=#000000;fillColor=#ffffc0;strokeColor=#ff0000;" parent="1" vertex="1">
          <mxGeometry x="345" y="340" width="120" height="60" as="geometry" />
        </mxCell>
        <mxCell id="ajDw7NVQ6zXEcZbBWGFU-12" value="Afficher &quot;Le nombre est positif&quot;" style="rounded=1;whiteSpace=wrap;html=1;arcSize=40;fontColor=#000000;fillColor=#ffffc0;strokeColor=#ff0000;" parent="1" vertex="1">
          <mxGeometry x="345" y="450" width="120" height="40" as="geometry" />
        </mxCell>
        <mxCell id="ajDw7NVQ6zXEcZbBWGFU-13" value="" style="edgeStyle=orthogonalEdgeStyle;html=1;verticalAlign=bottom;endArrow=open;endSize=8;strokeColor=#ff0000;rounded=0;" parent="1" source="ajDw7NVQ6zXEcZbBWGFU-12" edge="1">
          <mxGeometry relative="1" as="geometry">
            <mxPoint x="405" y="550" as="targetPoint" />
          </mxGeometry>
        </mxCell>
        <mxCell id="ajDw7NVQ6zXEcZbBWGFU-14" value="" style="ellipse;html=1;shape=endState;fillColor=#000000;strokeColor=#ff0000;" parent="1" vertex="1">
          <mxGeometry x="390" y="550" width="30" height="30" as="geometry" />
        </mxCell>
        <mxCell id="ajDw7NVQ6zXEcZbBWGFU-20" style="edgeStyle=orthogonalEdgeStyle;rounded=0;orthogonalLoop=1;jettySize=auto;html=1;" parent="1" source="ajDw7NVQ6zXEcZbBWGFU-17" edge="1">
          <mxGeometry relative="1" as="geometry">
            <mxPoint x="610" y="450.0000000000001" as="targetPoint" />
          </mxGeometry>
        </mxCell>
        <mxCell id="ajDw7NVQ6zXEcZbBWGFU-21" value="Oui&amp;nbsp;" style="edgeLabel;html=1;align=center;verticalAlign=middle;resizable=0;points=[];" parent="ajDw7NVQ6zXEcZbBWGFU-20" vertex="1" connectable="0">
          <mxGeometry x="-0.4457" relative="1" as="geometry">
            <mxPoint as="offset" />
          </mxGeometry>
        </mxCell>
        <mxCell id="ajDw7NVQ6zXEcZbBWGFU-25" style="edgeStyle=orthogonalEdgeStyle;rounded=0;orthogonalLoop=1;jettySize=auto;html=1;" parent="1" source="ajDw7NVQ6zXEcZbBWGFU-17" edge="1">
          <mxGeometry relative="1" as="geometry">
            <mxPoint x="780" y="370.0000000000001" as="targetPoint" />
          </mxGeometry>
        </mxCell>
        <mxCell id="ajDw7NVQ6zXEcZbBWGFU-26" value="Non" style="edgeLabel;html=1;align=center;verticalAlign=middle;resizable=0;points=[];" parent="ajDw7NVQ6zXEcZbBWGFU-25" vertex="1" connectable="0">
          <mxGeometry x="-0.6568" relative="1" as="geometry">
            <mxPoint as="offset" />
          </mxGeometry>
        </mxCell>
        <mxCell id="ajDw7NVQ6zXEcZbBWGFU-17" value="nombre &amp;lt; 0" style="rhombus;whiteSpace=wrap;html=1;fontColor=#000000;fillColor=#ffffc0;strokeColor=#ff0000;" parent="1" vertex="1">
          <mxGeometry x="560" y="345" width="100" height="50" as="geometry" />
        </mxCell>
        <mxCell id="ajDw7NVQ6zXEcZbBWGFU-22" value="Afficher &quot;Le nombre est negatif&quot;" style="rounded=1;whiteSpace=wrap;html=1;arcSize=40;fontColor=#000000;fillColor=#ffffc0;strokeColor=#ff0000;" parent="1" vertex="1">
          <mxGeometry x="550" y="450" width="120" height="40" as="geometry" />
        </mxCell>
        <mxCell id="ajDw7NVQ6zXEcZbBWGFU-23" value="" style="edgeStyle=orthogonalEdgeStyle;html=1;verticalAlign=bottom;endArrow=open;endSize=8;strokeColor=#ff0000;rounded=0;" parent="1" source="ajDw7NVQ6zXEcZbBWGFU-22" edge="1">
          <mxGeometry relative="1" as="geometry">
            <mxPoint x="610" y="550" as="targetPoint" />
          </mxGeometry>
        </mxCell>
        <mxCell id="ajDw7NVQ6zXEcZbBWGFU-24" value="" style="ellipse;html=1;shape=endState;fillColor=#000000;strokeColor=#ff0000;" parent="1" vertex="1">
          <mxGeometry x="595" y="550" width="30" height="30" as="geometry" />
        </mxCell>
        <mxCell id="ajDw7NVQ6zXEcZbBWGFU-27" value="Afficher &quot;Le nombre est nul&quot;" style="rounded=1;whiteSpace=wrap;html=1;arcSize=40;fontColor=#000000;fillColor=#ffffc0;strokeColor=#ff0000;" parent="1" vertex="1">
          <mxGeometry x="780" y="350" width="120" height="40" as="geometry" />
        </mxCell>
        <mxCell id="ajDw7NVQ6zXEcZbBWGFU-28" value="" style="edgeStyle=orthogonalEdgeStyle;html=1;verticalAlign=bottom;endArrow=open;endSize=8;strokeColor=#ff0000;rounded=0;" parent="1" source="ajDw7NVQ6zXEcZbBWGFU-27" edge="1">
          <mxGeometry relative="1" as="geometry">
            <mxPoint x="840" y="450" as="targetPoint" />
          </mxGeometry>
        </mxCell>
        <mxCell id="ajDw7NVQ6zXEcZbBWGFU-29" value="" style="ellipse;html=1;shape=endState;fillColor=#000000;strokeColor=#ff0000;" parent="1" vertex="1">
          <mxGeometry x="827" y="450" width="30" height="30" as="geometry" />
        </mxCell>
        <mxCell id="ErB6ZL6YeuMFfGsubgFn-1" value="Exercice 1.2" style="rounded=0;whiteSpace=wrap;html=1;" vertex="1" parent="1">
          <mxGeometry x="90" y="70" width="120" height="60" as="geometry" />
        </mxCell>
        <mxCell id="ErB6ZL6YeuMFfGsubgFn-2" value="Exercice 2.2" style="rounded=0;whiteSpace=wrap;html=1;" vertex="1" parent="1">
          <mxGeometry x="100" y="650" width="120" height="60" as="geometry" />
        </mxCell>
        <mxCell id="ErB6ZL6YeuMFfGsubgFn-5" style="edgeStyle=orthogonalEdgeStyle;rounded=0;orthogonalLoop=1;jettySize=auto;html=1;" edge="1" parent="1" source="ErB6ZL6YeuMFfGsubgFn-3">
          <mxGeometry relative="1" as="geometry">
            <mxPoint x="395" y="760" as="targetPoint" />
          </mxGeometry>
        </mxCell>
        <mxCell id="ErB6ZL6YeuMFfGsubgFn-3" value="" style="ellipse;html=1;shape=startState;fillColor=#000000;strokeColor=#ff0000;" vertex="1" parent="1">
          <mxGeometry x="380" y="660" width="30" height="30" as="geometry" />
        </mxCell>
        <mxCell id="ErB6ZL6YeuMFfGsubgFn-6" value="Saisir un nombre1" style="rounded=1;whiteSpace=wrap;html=1;arcSize=40;fontColor=#000000;fillColor=#ffffc0;strokeColor=#ff0000;" vertex="1" parent="1">
          <mxGeometry x="335" y="760" width="120" height="40" as="geometry" />
        </mxCell>
        <mxCell id="ErB6ZL6YeuMFfGsubgFn-7" value="" style="edgeStyle=orthogonalEdgeStyle;html=1;verticalAlign=bottom;endArrow=open;endSize=8;strokeColor=#ff0000;rounded=0;" edge="1" source="ErB6ZL6YeuMFfGsubgFn-6" parent="1">
          <mxGeometry relative="1" as="geometry">
            <mxPoint x="395" y="860" as="targetPoint" />
          </mxGeometry>
        </mxCell>
        <mxCell id="ErB6ZL6YeuMFfGsubgFn-8" value="Lire nombre1" style="rounded=1;whiteSpace=wrap;html=1;arcSize=40;fontColor=#000000;fillColor=#ffffc0;strokeColor=#ff0000;" vertex="1" parent="1">
          <mxGeometry x="335" y="860" width="120" height="40" as="geometry" />
        </mxCell>
        <mxCell id="ErB6ZL6YeuMFfGsubgFn-9" value="" style="edgeStyle=orthogonalEdgeStyle;html=1;verticalAlign=bottom;endArrow=open;endSize=8;strokeColor=#ff0000;rounded=0;" edge="1" source="ErB6ZL6YeuMFfGsubgFn-8" parent="1">
          <mxGeometry relative="1" as="geometry">
            <mxPoint x="395" y="960" as="targetPoint" />
          </mxGeometry>
        </mxCell>
        <mxCell id="ErB6ZL6YeuMFfGsubgFn-10" value="Saisir le nombre 2" style="rounded=1;whiteSpace=wrap;html=1;arcSize=40;fontColor=#000000;fillColor=#ffffc0;strokeColor=#ff0000;" vertex="1" parent="1">
          <mxGeometry x="335" y="960" width="120" height="40" as="geometry" />
        </mxCell>
        <mxCell id="ErB6ZL6YeuMFfGsubgFn-11" value="" style="edgeStyle=orthogonalEdgeStyle;html=1;verticalAlign=bottom;endArrow=open;endSize=8;strokeColor=#ff0000;rounded=0;" edge="1" source="ErB6ZL6YeuMFfGsubgFn-10" parent="1">
          <mxGeometry relative="1" as="geometry">
            <mxPoint x="395" y="1060" as="targetPoint" />
          </mxGeometry>
        </mxCell>
        <mxCell id="ErB6ZL6YeuMFfGsubgFn-15" style="edgeStyle=orthogonalEdgeStyle;rounded=0;orthogonalLoop=1;jettySize=auto;html=1;" edge="1" parent="1" source="ErB6ZL6YeuMFfGsubgFn-12" target="ErB6ZL6YeuMFfGsubgFn-16">
          <mxGeometry relative="1" as="geometry">
            <mxPoint x="395" y="1230" as="targetPoint" />
          </mxGeometry>
        </mxCell>
        <mxCell id="ErB6ZL6YeuMFfGsubgFn-19" value="Oui" style="edgeLabel;html=1;align=center;verticalAlign=middle;resizable=0;points=[];" vertex="1" connectable="0" parent="ErB6ZL6YeuMFfGsubgFn-15">
          <mxGeometry x="-0.5429" y="-1" relative="1" as="geometry">
            <mxPoint as="offset" />
          </mxGeometry>
        </mxCell>
        <mxCell id="ErB6ZL6YeuMFfGsubgFn-20" style="edgeStyle=orthogonalEdgeStyle;rounded=0;orthogonalLoop=1;jettySize=auto;html=1;" edge="1" parent="1" source="ErB6ZL6YeuMFfGsubgFn-12">
          <mxGeometry relative="1" as="geometry">
            <mxPoint x="560" y="1100" as="targetPoint" />
          </mxGeometry>
        </mxCell>
        <mxCell id="ErB6ZL6YeuMFfGsubgFn-21" value="Non" style="edgeLabel;html=1;align=center;verticalAlign=middle;resizable=0;points=[];" vertex="1" connectable="0" parent="ErB6ZL6YeuMFfGsubgFn-20">
          <mxGeometry x="-0.7041" y="-3" relative="1" as="geometry">
            <mxPoint x="1" as="offset" />
          </mxGeometry>
        </mxCell>
        <mxCell id="ErB6ZL6YeuMFfGsubgFn-12" value="nombre1 = 0 OU nombre2 = 0" style="rhombus;whiteSpace=wrap;html=1;fontColor=#000000;fillColor=#ffffc0;strokeColor=#ff0000;" vertex="1" parent="1">
          <mxGeometry x="327.5" y="1060" width="135" height="80" as="geometry" />
        </mxCell>
        <mxCell id="ErB6ZL6YeuMFfGsubgFn-17" style="edgeStyle=orthogonalEdgeStyle;rounded=0;orthogonalLoop=1;jettySize=auto;html=1;" edge="1" parent="1" source="ErB6ZL6YeuMFfGsubgFn-16" target="ErB6ZL6YeuMFfGsubgFn-18">
          <mxGeometry relative="1" as="geometry">
            <mxPoint x="395" y="1320" as="targetPoint" />
          </mxGeometry>
        </mxCell>
        <mxCell id="ErB6ZL6YeuMFfGsubgFn-16" value="Afficher &quot;Le produit des 2 nombres est null&quot;" style="rounded=1;whiteSpace=wrap;html=1;arcSize=40;fontColor=#000000;fillColor=#ffffc0;strokeColor=#ff0000;" vertex="1" parent="1">
          <mxGeometry x="335" y="1210" width="120" height="60" as="geometry" />
        </mxCell>
        <mxCell id="ErB6ZL6YeuMFfGsubgFn-18" value="" style="ellipse;html=1;shape=endState;fillColor=#000000;strokeColor=#ff0000;" vertex="1" parent="1">
          <mxGeometry x="380" y="1305" width="30" height="30" as="geometry" />
        </mxCell>
        <mxCell id="ErB6ZL6YeuMFfGsubgFn-25" style="edgeStyle=orthogonalEdgeStyle;rounded=0;orthogonalLoop=1;jettySize=auto;html=1;" edge="1" parent="1" source="ErB6ZL6YeuMFfGsubgFn-22" target="ErB6ZL6YeuMFfGsubgFn-26">
          <mxGeometry relative="1" as="geometry">
            <mxPoint x="675" y="1210" as="targetPoint" />
          </mxGeometry>
        </mxCell>
        <mxCell id="ErB6ZL6YeuMFfGsubgFn-29" style="edgeStyle=orthogonalEdgeStyle;rounded=0;orthogonalLoop=1;jettySize=auto;html=1;" edge="1" parent="1" source="ErB6ZL6YeuMFfGsubgFn-22" target="ErB6ZL6YeuMFfGsubgFn-30">
          <mxGeometry relative="1" as="geometry">
            <mxPoint x="900" y="1210" as="targetPoint" />
          </mxGeometry>
        </mxCell>
        <mxCell id="ErB6ZL6YeuMFfGsubgFn-22" value="(nombre1 &amp;gt; 0 ET nombre2 &amp;gt; 0) OU (nombre1 &amp;lt; 0 ET nombre2 &amp;lt; 0)" style="rhombus;whiteSpace=wrap;html=1;fontColor=#000000;fillColor=#ffffc0;strokeColor=#ff0000;" vertex="1" parent="1">
          <mxGeometry x="560" y="1040" width="230" height="120" as="geometry" />
        </mxCell>
        <mxCell id="ErB6ZL6YeuMFfGsubgFn-27" style="edgeStyle=orthogonalEdgeStyle;rounded=0;orthogonalLoop=1;jettySize=auto;html=1;" edge="1" parent="1" source="ErB6ZL6YeuMFfGsubgFn-26" target="ErB6ZL6YeuMFfGsubgFn-28">
          <mxGeometry relative="1" as="geometry">
            <mxPoint x="675" y="1320" as="targetPoint" />
          </mxGeometry>
        </mxCell>
        <mxCell id="ErB6ZL6YeuMFfGsubgFn-26" value="Afficher &quot;Le produit des 2 nombres est positif&quot;" style="rounded=1;whiteSpace=wrap;html=1;arcSize=40;fontColor=#000000;fillColor=#ffffc0;strokeColor=#ff0000;" vertex="1" parent="1">
          <mxGeometry x="615" y="1205" width="120" height="70" as="geometry" />
        </mxCell>
        <mxCell id="ErB6ZL6YeuMFfGsubgFn-28" value="" style="ellipse;html=1;shape=endState;fillColor=#000000;strokeColor=#ff0000;" vertex="1" parent="1">
          <mxGeometry x="660" y="1305" width="30" height="30" as="geometry" />
        </mxCell>
        <mxCell id="ErB6ZL6YeuMFfGsubgFn-31" style="edgeStyle=orthogonalEdgeStyle;rounded=0;orthogonalLoop=1;jettySize=auto;html=1;" edge="1" parent="1" source="ErB6ZL6YeuMFfGsubgFn-30" target="ErB6ZL6YeuMFfGsubgFn-32">
          <mxGeometry relative="1" as="geometry">
            <mxPoint x="900" y="1300" as="targetPoint" />
          </mxGeometry>
        </mxCell>
        <mxCell id="ErB6ZL6YeuMFfGsubgFn-30" value="Afficher &quot;le produit des 2 nombres est négatif&quot;" style="rounded=1;whiteSpace=wrap;html=1;arcSize=40;fontColor=#000000;fillColor=#ffffc0;strokeColor=#ff0000;" vertex="1" parent="1">
          <mxGeometry x="840" y="1200" width="120" height="60" as="geometry" />
        </mxCell>
        <mxCell id="ErB6ZL6YeuMFfGsubgFn-32" value="" style="ellipse;html=1;shape=endState;fillColor=#000000;strokeColor=#ff0000;" vertex="1" parent="1">
          <mxGeometry x="885" y="1300" width="30" height="30" as="geometry" />
        </mxCell>
        <mxCell id="ErB6ZL6YeuMFfGsubgFn-33" value="&lt;b&gt;Exercice 3&lt;/b&gt;" style="html=1;whiteSpace=wrap;" vertex="1" parent="1">
          <mxGeometry x="70" y="1400" width="110" height="50" as="geometry" />
        </mxCell>
        <mxCell id="ErB6ZL6YeuMFfGsubgFn-34" value="Saisir l&#39;age de l&#39;enfant" style="rounded=1;whiteSpace=wrap;html=1;arcSize=40;fontColor=#000000;fillColor=#ffffc0;strokeColor=#ff0000;" vertex="1" parent="1">
          <mxGeometry x="280" y="1400" width="120" height="40" as="geometry" />
        </mxCell>
        <mxCell id="ErB6ZL6YeuMFfGsubgFn-35" value="" style="edgeStyle=orthogonalEdgeStyle;html=1;verticalAlign=bottom;endArrow=open;endSize=8;strokeColor=#ff0000;rounded=0;" edge="1" source="ErB6ZL6YeuMFfGsubgFn-34" parent="1">
          <mxGeometry relative="1" as="geometry">
            <mxPoint x="340" y="1500" as="targetPoint" />
          </mxGeometry>
        </mxCell>
        <mxCell id="ErB6ZL6YeuMFfGsubgFn-36" value="lire age" style="rounded=1;whiteSpace=wrap;html=1;arcSize=40;fontColor=#000000;fillColor=#ffffc0;strokeColor=#ff0000;" vertex="1" parent="1">
          <mxGeometry x="280" y="1500" width="120" height="40" as="geometry" />
        </mxCell>
        <mxCell id="ErB6ZL6YeuMFfGsubgFn-37" value="" style="edgeStyle=orthogonalEdgeStyle;html=1;verticalAlign=bottom;endArrow=open;endSize=8;strokeColor=#ff0000;rounded=0;" edge="1" source="ErB6ZL6YeuMFfGsubgFn-36" parent="1">
          <mxGeometry relative="1" as="geometry">
            <mxPoint x="340" y="1600" as="targetPoint" />
          </mxGeometry>
        </mxCell>
        <mxCell id="ErB6ZL6YeuMFfGsubgFn-41" style="edgeStyle=orthogonalEdgeStyle;rounded=0;orthogonalLoop=1;jettySize=auto;html=1;" edge="1" parent="1" source="ErB6ZL6YeuMFfGsubgFn-38" target="ErB6ZL6YeuMFfGsubgFn-42">
          <mxGeometry relative="1" as="geometry">
            <mxPoint x="340" y="1720" as="targetPoint" />
          </mxGeometry>
        </mxCell>
        <mxCell id="ErB6ZL6YeuMFfGsubgFn-45" value="Oui" style="edgeLabel;html=1;align=center;verticalAlign=middle;resizable=0;points=[];" vertex="1" connectable="0" parent="ErB6ZL6YeuMFfGsubgFn-41">
          <mxGeometry x="-0.55" relative="1" as="geometry">
            <mxPoint as="offset" />
          </mxGeometry>
        </mxCell>
        <mxCell id="ErB6ZL6YeuMFfGsubgFn-46" style="edgeStyle=orthogonalEdgeStyle;rounded=0;orthogonalLoop=1;jettySize=auto;html=1;" edge="1" parent="1" source="ErB6ZL6YeuMFfGsubgFn-38">
          <mxGeometry relative="1" as="geometry">
            <mxPoint x="490" y="1630" as="targetPoint" />
          </mxGeometry>
        </mxCell>
        <mxCell id="ErB6ZL6YeuMFfGsubgFn-47" value="Non" style="edgeLabel;html=1;align=center;verticalAlign=middle;resizable=0;points=[];" vertex="1" connectable="0" parent="ErB6ZL6YeuMFfGsubgFn-46">
          <mxGeometry x="-0.6025" y="-2" relative="1" as="geometry">
            <mxPoint as="offset" />
          </mxGeometry>
        </mxCell>
        <mxCell id="ErB6ZL6YeuMFfGsubgFn-38" value="age &amp;gt;= 12" style="rhombus;whiteSpace=wrap;html=1;fontColor=#000000;fillColor=#ffffc0;strokeColor=#ff0000;" vertex="1" parent="1">
          <mxGeometry x="270" y="1600" width="140" height="60" as="geometry" />
        </mxCell>
        <mxCell id="ErB6ZL6YeuMFfGsubgFn-43" style="edgeStyle=orthogonalEdgeStyle;rounded=0;orthogonalLoop=1;jettySize=auto;html=1;" edge="1" parent="1" source="ErB6ZL6YeuMFfGsubgFn-42" target="ErB6ZL6YeuMFfGsubgFn-44">
          <mxGeometry relative="1" as="geometry">
            <mxPoint x="340" y="1800" as="targetPoint" />
          </mxGeometry>
        </mxCell>
        <mxCell id="ErB6ZL6YeuMFfGsubgFn-42" value="Categorie Cadet" style="rounded=1;whiteSpace=wrap;html=1;arcSize=40;fontColor=#000000;fillColor=#ffffc0;strokeColor=#ff0000;" vertex="1" parent="1">
          <mxGeometry x="280" y="1700" width="120" height="40" as="geometry" />
        </mxCell>
        <mxCell id="ErB6ZL6YeuMFfGsubgFn-44" value="" style="ellipse;html=1;shape=endState;fillColor=#000000;strokeColor=#ff0000;" vertex="1" parent="1">
          <mxGeometry x="325" y="1785" width="30" height="30" as="geometry" />
        </mxCell>
        <mxCell id="ErB6ZL6YeuMFfGsubgFn-51" style="edgeStyle=orthogonalEdgeStyle;rounded=0;orthogonalLoop=1;jettySize=auto;html=1;" edge="1" parent="1" source="ErB6ZL6YeuMFfGsubgFn-48" target="ErB6ZL6YeuMFfGsubgFn-52">
          <mxGeometry relative="1" as="geometry">
            <mxPoint x="557.5" y="1710" as="targetPoint" />
          </mxGeometry>
        </mxCell>
        <mxCell id="ErB6ZL6YeuMFfGsubgFn-58" value="Oui" style="edgeLabel;html=1;align=center;verticalAlign=middle;resizable=0;points=[];" vertex="1" connectable="0" parent="ErB6ZL6YeuMFfGsubgFn-51">
          <mxGeometry x="-0.4667" y="1" relative="1" as="geometry">
            <mxPoint as="offset" />
          </mxGeometry>
        </mxCell>
        <mxCell id="ErB6ZL6YeuMFfGsubgFn-59" style="edgeStyle=orthogonalEdgeStyle;rounded=0;orthogonalLoop=1;jettySize=auto;html=1;" edge="1" parent="1" source="ErB6ZL6YeuMFfGsubgFn-48">
          <mxGeometry relative="1" as="geometry">
            <mxPoint x="690" y="1630" as="targetPoint" />
          </mxGeometry>
        </mxCell>
        <mxCell id="ErB6ZL6YeuMFfGsubgFn-60" value="Non" style="edgeLabel;html=1;align=center;verticalAlign=middle;resizable=0;points=[];" vertex="1" connectable="0" parent="ErB6ZL6YeuMFfGsubgFn-59">
          <mxGeometry x="-0.4809" y="-3" relative="1" as="geometry">
            <mxPoint as="offset" />
          </mxGeometry>
        </mxCell>
        <mxCell id="ErB6ZL6YeuMFfGsubgFn-48" value="age &amp;gt;= 10" style="rhombus;whiteSpace=wrap;html=1;fontColor=#000000;fillColor=#ffffc0;strokeColor=#ff0000;" vertex="1" parent="1">
          <mxGeometry x="490" y="1595" width="135" height="70" as="geometry" />
        </mxCell>
        <mxCell id="ErB6ZL6YeuMFfGsubgFn-54" style="edgeStyle=orthogonalEdgeStyle;rounded=0;orthogonalLoop=1;jettySize=auto;html=1;" edge="1" parent="1" source="ErB6ZL6YeuMFfGsubgFn-52">
          <mxGeometry relative="1" as="geometry">
            <mxPoint x="557.5" y="1790" as="targetPoint" />
          </mxGeometry>
        </mxCell>
        <mxCell id="ErB6ZL6YeuMFfGsubgFn-52" value="Categorie Minime" style="rounded=1;whiteSpace=wrap;html=1;arcSize=40;fontColor=#000000;fillColor=#ffffc0;strokeColor=#ff0000;" vertex="1" parent="1">
          <mxGeometry x="497.5" y="1700" width="120" height="40" as="geometry" />
        </mxCell>
        <mxCell id="ErB6ZL6YeuMFfGsubgFn-53" value="" style="ellipse;html=1;shape=endState;fillColor=#000000;strokeColor=#ff0000;" vertex="1" parent="1">
          <mxGeometry x="542.5" y="1785" width="30" height="30" as="geometry" />
        </mxCell>
        <mxCell id="ErB6ZL6YeuMFfGsubgFn-61" style="edgeStyle=orthogonalEdgeStyle;rounded=0;orthogonalLoop=1;jettySize=auto;html=1;" edge="1" parent="1" source="ErB6ZL6YeuMFfGsubgFn-55" target="ErB6ZL6YeuMFfGsubgFn-62">
          <mxGeometry relative="1" as="geometry">
            <mxPoint x="759.5" y="1710" as="targetPoint" />
          </mxGeometry>
        </mxCell>
        <mxCell id="ErB6ZL6YeuMFfGsubgFn-69" value="Oui" style="edgeLabel;html=1;align=center;verticalAlign=middle;resizable=0;points=[];" vertex="1" connectable="0" parent="ErB6ZL6YeuMFfGsubgFn-61">
          <mxGeometry x="-0.4222" y="2" relative="1" as="geometry">
            <mxPoint as="offset" />
          </mxGeometry>
        </mxCell>
        <mxCell id="ErB6ZL6YeuMFfGsubgFn-68" style="edgeStyle=orthogonalEdgeStyle;rounded=0;orthogonalLoop=1;jettySize=auto;html=1;" edge="1" parent="1" source="ErB6ZL6YeuMFfGsubgFn-55">
          <mxGeometry relative="1" as="geometry">
            <mxPoint x="890" y="1630" as="targetPoint" />
          </mxGeometry>
        </mxCell>
        <mxCell id="ErB6ZL6YeuMFfGsubgFn-70" value="Non" style="edgeLabel;html=1;align=center;verticalAlign=middle;resizable=0;points=[];" vertex="1" connectable="0" parent="ErB6ZL6YeuMFfGsubgFn-68">
          <mxGeometry x="-0.4331" relative="1" as="geometry">
            <mxPoint as="offset" />
          </mxGeometry>
        </mxCell>
        <mxCell id="ErB6ZL6YeuMFfGsubgFn-55" value="age &amp;gt;= 8" style="rhombus;whiteSpace=wrap;html=1;fontColor=#000000;fillColor=#ffffc0;strokeColor=#ff0000;" vertex="1" parent="1">
          <mxGeometry x="692" y="1595" width="135" height="70" as="geometry" />
        </mxCell>
        <mxCell id="ErB6ZL6YeuMFfGsubgFn-63" style="edgeStyle=orthogonalEdgeStyle;rounded=0;orthogonalLoop=1;jettySize=auto;html=1;" edge="1" parent="1" source="ErB6ZL6YeuMFfGsubgFn-62" target="ErB6ZL6YeuMFfGsubgFn-64">
          <mxGeometry relative="1" as="geometry">
            <mxPoint x="759.5" y="1790" as="targetPoint" />
          </mxGeometry>
        </mxCell>
        <mxCell id="ErB6ZL6YeuMFfGsubgFn-62" value="Categorie Pupille" style="rounded=1;whiteSpace=wrap;html=1;arcSize=40;fontColor=#000000;fillColor=#ffffc0;strokeColor=#ff0000;" vertex="1" parent="1">
          <mxGeometry x="699.5" y="1700" width="120" height="40" as="geometry" />
        </mxCell>
        <mxCell id="ErB6ZL6YeuMFfGsubgFn-64" value="" style="ellipse;html=1;shape=endState;fillColor=#000000;strokeColor=#ff0000;" vertex="1" parent="1">
          <mxGeometry x="744.5" y="1785" width="30" height="30" as="geometry" />
        </mxCell>
        <mxCell id="ErB6ZL6YeuMFfGsubgFn-71" style="edgeStyle=orthogonalEdgeStyle;rounded=0;orthogonalLoop=1;jettySize=auto;html=1;" edge="1" parent="1" source="ErB6ZL6YeuMFfGsubgFn-65" target="ErB6ZL6YeuMFfGsubgFn-72">
          <mxGeometry relative="1" as="geometry">
            <mxPoint x="950" y="1710" as="targetPoint" />
          </mxGeometry>
        </mxCell>
        <mxCell id="ErB6ZL6YeuMFfGsubgFn-75" value="Oui" style="edgeLabel;html=1;align=center;verticalAlign=middle;resizable=0;points=[];" vertex="1" connectable="0" parent="ErB6ZL6YeuMFfGsubgFn-71">
          <mxGeometry x="-0.6889" y="-1" relative="1" as="geometry">
            <mxPoint as="offset" />
          </mxGeometry>
        </mxCell>
        <mxCell id="ErB6ZL6YeuMFfGsubgFn-65" value="age &amp;gt;= 6" style="rhombus;whiteSpace=wrap;html=1;fontColor=#000000;fillColor=#ffffc0;strokeColor=#ff0000;" vertex="1" parent="1">
          <mxGeometry x="890" y="1595" width="120" height="70" as="geometry" />
        </mxCell>
        <mxCell id="ErB6ZL6YeuMFfGsubgFn-73" style="edgeStyle=orthogonalEdgeStyle;rounded=0;orthogonalLoop=1;jettySize=auto;html=1;" edge="1" parent="1" source="ErB6ZL6YeuMFfGsubgFn-72" target="ErB6ZL6YeuMFfGsubgFn-74">
          <mxGeometry relative="1" as="geometry">
            <mxPoint x="950" y="1780" as="targetPoint" />
          </mxGeometry>
        </mxCell>
        <mxCell id="ErB6ZL6YeuMFfGsubgFn-72" value="Categorie poussin&amp;nbsp;" style="rounded=1;whiteSpace=wrap;html=1;arcSize=40;fontColor=#000000;fillColor=#ffffc0;strokeColor=#ff0000;" vertex="1" parent="1">
          <mxGeometry x="890" y="1700" width="120" height="40" as="geometry" />
        </mxCell>
        <mxCell id="ErB6ZL6YeuMFfGsubgFn-74" value="" style="ellipse;html=1;shape=endState;fillColor=#000000;strokeColor=#ff0000;" vertex="1" parent="1">
          <mxGeometry x="935" y="1785" width="30" height="30" as="geometry" />
        </mxCell>
        <mxCell id="ErB6ZL6YeuMFfGsubgFn-76" value="Exercice 4.2" style="html=1;whiteSpace=wrap;" vertex="1" parent="1">
          <mxGeometry x="95" y="1880" width="110" height="50" as="geometry" />
        </mxCell>
        <mxCell id="ErB6ZL6YeuMFfGsubgFn-77" value="saisir l&#39;heure" style="rounded=1;whiteSpace=wrap;html=1;arcSize=40;fontColor=#000000;fillColor=#ffffc0;strokeColor=#ff0000;" vertex="1" parent="1">
          <mxGeometry x="280" y="1880" width="120" height="40" as="geometry" />
        </mxCell>
        <mxCell id="ErB6ZL6YeuMFfGsubgFn-78" value="" style="edgeStyle=orthogonalEdgeStyle;html=1;verticalAlign=bottom;endArrow=open;endSize=8;strokeColor=#ff0000;rounded=0;" edge="1" source="ErB6ZL6YeuMFfGsubgFn-77" parent="1">
          <mxGeometry relative="1" as="geometry">
            <mxPoint x="340" y="1980" as="targetPoint" />
          </mxGeometry>
        </mxCell>
        <mxCell id="ErB6ZL6YeuMFfGsubgFn-79" value="lire heure" style="rounded=1;whiteSpace=wrap;html=1;arcSize=40;fontColor=#000000;fillColor=#ffffc0;strokeColor=#ff0000;" vertex="1" parent="1">
          <mxGeometry x="280" y="1980" width="120" height="40" as="geometry" />
        </mxCell>
        <mxCell id="ErB6ZL6YeuMFfGsubgFn-80" value="" style="edgeStyle=orthogonalEdgeStyle;html=1;verticalAlign=bottom;endArrow=open;endSize=8;strokeColor=#ff0000;rounded=0;" edge="1" source="ErB6ZL6YeuMFfGsubgFn-79" parent="1">
          <mxGeometry relative="1" as="geometry">
            <mxPoint x="340" y="2080" as="targetPoint" />
          </mxGeometry>
        </mxCell>
        <mxCell id="ErB6ZL6YeuMFfGsubgFn-81" value="Saisir les minutes" style="rounded=1;whiteSpace=wrap;html=1;arcSize=40;fontColor=#000000;fillColor=#ffffc0;strokeColor=#ff0000;" vertex="1" parent="1">
          <mxGeometry x="280" y="2080" width="120" height="40" as="geometry" />
        </mxCell>
        <mxCell id="ErB6ZL6YeuMFfGsubgFn-82" value="" style="edgeStyle=orthogonalEdgeStyle;html=1;verticalAlign=bottom;endArrow=open;endSize=8;strokeColor=#ff0000;rounded=0;" edge="1" source="ErB6ZL6YeuMFfGsubgFn-81" parent="1">
          <mxGeometry relative="1" as="geometry">
            <mxPoint x="340" y="2180" as="targetPoint" />
          </mxGeometry>
        </mxCell>
        <mxCell id="ErB6ZL6YeuMFfGsubgFn-83" value="Lire minute" style="rounded=1;whiteSpace=wrap;html=1;arcSize=40;fontColor=#000000;fillColor=#ffffc0;strokeColor=#ff0000;" vertex="1" parent="1">
          <mxGeometry x="280" y="2180" width="120" height="40" as="geometry" />
        </mxCell>
        <mxCell id="ErB6ZL6YeuMFfGsubgFn-84" value="" style="edgeStyle=orthogonalEdgeStyle;html=1;verticalAlign=bottom;endArrow=open;endSize=8;strokeColor=#ff0000;rounded=0;" edge="1" source="ErB6ZL6YeuMFfGsubgFn-83" parent="1">
          <mxGeometry relative="1" as="geometry">
            <mxPoint x="340" y="2280" as="targetPoint" />
          </mxGeometry>
        </mxCell>
        <mxCell id="ErB6ZL6YeuMFfGsubgFn-85" value="Saisir les secondes" style="rounded=1;whiteSpace=wrap;html=1;arcSize=40;fontColor=#000000;fillColor=#ffffc0;strokeColor=#ff0000;" vertex="1" parent="1">
          <mxGeometry x="280" y="2280" width="120" height="40" as="geometry" />
        </mxCell>
        <mxCell id="ErB6ZL6YeuMFfGsubgFn-86" value="" style="edgeStyle=orthogonalEdgeStyle;html=1;verticalAlign=bottom;endArrow=open;endSize=8;strokeColor=#ff0000;rounded=0;" edge="1" source="ErB6ZL6YeuMFfGsubgFn-85" parent="1">
          <mxGeometry relative="1" as="geometry">
            <mxPoint x="340" y="2380" as="targetPoint" />
          </mxGeometry>
        </mxCell>
        <mxCell id="ErB6ZL6YeuMFfGsubgFn-87" value="Lire secondes" style="rounded=1;whiteSpace=wrap;html=1;arcSize=40;fontColor=#000000;fillColor=#ffffc0;strokeColor=#ff0000;" vertex="1" parent="1">
          <mxGeometry x="280" y="2380" width="120" height="40" as="geometry" />
        </mxCell>
        <mxCell id="ErB6ZL6YeuMFfGsubgFn-88" value="" style="edgeStyle=orthogonalEdgeStyle;html=1;verticalAlign=bottom;endArrow=open;endSize=8;strokeColor=#ff0000;rounded=0;" edge="1" source="ErB6ZL6YeuMFfGsubgFn-87" parent="1">
          <mxGeometry relative="1" as="geometry">
            <mxPoint x="340" y="2480" as="targetPoint" />
          </mxGeometry>
        </mxCell>
        <mxCell id="ErB6ZL6YeuMFfGsubgFn-92" style="edgeStyle=orthogonalEdgeStyle;rounded=0;orthogonalLoop=1;jettySize=auto;html=1;" edge="1" parent="1" source="ErB6ZL6YeuMFfGsubgFn-89" target="ErB6ZL6YeuMFfGsubgFn-93">
          <mxGeometry relative="1" as="geometry">
            <mxPoint x="340" y="2590" as="targetPoint" />
          </mxGeometry>
        </mxCell>
        <mxCell id="ErB6ZL6YeuMFfGsubgFn-96" value="Oui" style="edgeLabel;html=1;align=center;verticalAlign=middle;resizable=0;points=[];" vertex="1" connectable="0" parent="ErB6ZL6YeuMFfGsubgFn-92">
          <mxGeometry x="-0.72" y="3" relative="1" as="geometry">
            <mxPoint as="offset" />
          </mxGeometry>
        </mxCell>
        <mxCell id="ErB6ZL6YeuMFfGsubgFn-100" style="edgeStyle=orthogonalEdgeStyle;rounded=0;orthogonalLoop=1;jettySize=auto;html=1;" edge="1" parent="1" source="ErB6ZL6YeuMFfGsubgFn-89" target="ErB6ZL6YeuMFfGsubgFn-95">
          <mxGeometry relative="1" as="geometry">
            <Array as="points">
              <mxPoint x="230" y="2510" />
              <mxPoint x="230" y="2675" />
            </Array>
          </mxGeometry>
        </mxCell>
        <mxCell id="ErB6ZL6YeuMFfGsubgFn-101" value="Non" style="edgeLabel;html=1;align=center;verticalAlign=middle;resizable=0;points=[];" vertex="1" connectable="0" parent="ErB6ZL6YeuMFfGsubgFn-100">
          <mxGeometry x="-0.6231" relative="1" as="geometry">
            <mxPoint as="offset" />
          </mxGeometry>
        </mxCell>
        <mxCell id="ErB6ZL6YeuMFfGsubgFn-89" value="seconde = 60" style="rhombus;whiteSpace=wrap;html=1;fontColor=#000000;fillColor=#ffffc0;strokeColor=#ff0000;" vertex="1" parent="1">
          <mxGeometry x="270" y="2480" width="140" height="60" as="geometry" />
        </mxCell>
        <mxCell id="ErB6ZL6YeuMFfGsubgFn-94" style="edgeStyle=orthogonalEdgeStyle;rounded=0;orthogonalLoop=1;jettySize=auto;html=1;" edge="1" parent="1" source="ErB6ZL6YeuMFfGsubgFn-93" target="ErB6ZL6YeuMFfGsubgFn-95">
          <mxGeometry relative="1" as="geometry">
            <mxPoint x="340" y="2660" as="targetPoint" />
          </mxGeometry>
        </mxCell>
        <mxCell id="ErB6ZL6YeuMFfGsubgFn-93" value="seconde &amp;lt;-- 0&lt;br&gt;minute &amp;lt;-- minute + 1" style="rounded=1;whiteSpace=wrap;html=1;arcSize=40;fontColor=#000000;fillColor=#ffffc0;strokeColor=#ff0000;" vertex="1" parent="1">
          <mxGeometry x="280" y="2570" width="120" height="40" as="geometry" />
        </mxCell>
        <mxCell id="ErB6ZL6YeuMFfGsubgFn-97" style="edgeStyle=orthogonalEdgeStyle;rounded=0;orthogonalLoop=1;jettySize=auto;html=1;" edge="1" parent="1" source="ErB6ZL6YeuMFfGsubgFn-95" target="ErB6ZL6YeuMFfGsubgFn-98">
          <mxGeometry relative="1" as="geometry">
            <mxPoint x="340" y="2750" as="targetPoint" />
          </mxGeometry>
        </mxCell>
        <mxCell id="ErB6ZL6YeuMFfGsubgFn-99" value="Oui" style="edgeLabel;html=1;align=center;verticalAlign=middle;resizable=0;points=[];" vertex="1" connectable="0" parent="ErB6ZL6YeuMFfGsubgFn-97">
          <mxGeometry x="-0.65" y="-2" relative="1" as="geometry">
            <mxPoint as="offset" />
          </mxGeometry>
        </mxCell>
        <mxCell id="ErB6ZL6YeuMFfGsubgFn-107" style="edgeStyle=orthogonalEdgeStyle;rounded=0;orthogonalLoop=1;jettySize=auto;html=1;entryX=1;entryY=0.5;entryDx=0;entryDy=0;" edge="1" parent="1" source="ErB6ZL6YeuMFfGsubgFn-95" target="ErB6ZL6YeuMFfGsubgFn-104">
          <mxGeometry relative="1" as="geometry">
            <Array as="points">
              <mxPoint x="420" y="2675" />
              <mxPoint x="420" y="2895" />
            </Array>
          </mxGeometry>
        </mxCell>
        <mxCell id="ErB6ZL6YeuMFfGsubgFn-108" value="Non" style="edgeLabel;html=1;align=center;verticalAlign=middle;resizable=0;points=[];" vertex="1" connectable="0" parent="ErB6ZL6YeuMFfGsubgFn-107">
          <mxGeometry x="-0.6453" relative="1" as="geometry">
            <mxPoint as="offset" />
          </mxGeometry>
        </mxCell>
        <mxCell id="ErB6ZL6YeuMFfGsubgFn-95" value="minute = 60" style="rhombus;whiteSpace=wrap;html=1;fontColor=#000000;fillColor=#ffffc0;strokeColor=#ff0000;" vertex="1" parent="1">
          <mxGeometry x="285" y="2640" width="110" height="70" as="geometry" />
        </mxCell>
        <mxCell id="ErB6ZL6YeuMFfGsubgFn-102" style="edgeStyle=orthogonalEdgeStyle;rounded=0;orthogonalLoop=1;jettySize=auto;html=1;" edge="1" parent="1" source="ErB6ZL6YeuMFfGsubgFn-98">
          <mxGeometry relative="1" as="geometry">
            <mxPoint x="340" y="2860" as="targetPoint" />
          </mxGeometry>
        </mxCell>
        <mxCell id="ErB6ZL6YeuMFfGsubgFn-98" value="minute &amp;lt;-- 0&lt;br&gt;heure &amp;lt;-- heure + 1" style="rounded=1;whiteSpace=wrap;html=1;arcSize=40;fontColor=#000000;fillColor=#ffffc0;strokeColor=#ff0000;" vertex="1" parent="1">
          <mxGeometry x="280" y="2750" width="120" height="40" as="geometry" />
        </mxCell>
        <mxCell id="ErB6ZL6YeuMFfGsubgFn-109" style="edgeStyle=orthogonalEdgeStyle;rounded=0;orthogonalLoop=1;jettySize=auto;html=1;" edge="1" parent="1" source="ErB6ZL6YeuMFfGsubgFn-104" target="ErB6ZL6YeuMFfGsubgFn-110">
          <mxGeometry relative="1" as="geometry">
            <mxPoint x="340" y="2970" as="targetPoint" />
          </mxGeometry>
        </mxCell>
        <mxCell id="ErB6ZL6YeuMFfGsubgFn-111" value="Oui" style="edgeLabel;html=1;align=center;verticalAlign=middle;resizable=0;points=[];" vertex="1" connectable="0" parent="ErB6ZL6YeuMFfGsubgFn-109">
          <mxGeometry x="-0.52" y="1" relative="1" as="geometry">
            <mxPoint as="offset" />
          </mxGeometry>
        </mxCell>
        <mxCell id="ErB6ZL6YeuMFfGsubgFn-104" value="heure = 24" style="rhombus;whiteSpace=wrap;html=1;fontColor=#000000;fillColor=#ffffc0;strokeColor=#ff0000;" vertex="1" parent="1">
          <mxGeometry x="280" y="2860" width="120" height="70" as="geometry" />
        </mxCell>
        <mxCell id="ErB6ZL6YeuMFfGsubgFn-112" style="edgeStyle=orthogonalEdgeStyle;rounded=0;orthogonalLoop=1;jettySize=auto;html=1;" edge="1" parent="1" source="ErB6ZL6YeuMFfGsubgFn-110" target="ErB6ZL6YeuMFfGsubgFn-113">
          <mxGeometry relative="1" as="geometry">
            <mxPoint x="340" y="3060" as="targetPoint" />
          </mxGeometry>
        </mxCell>
        <mxCell id="ErB6ZL6YeuMFfGsubgFn-110" value="heure &amp;lt;-- 0" style="rounded=1;whiteSpace=wrap;html=1;arcSize=40;fontColor=#000000;fillColor=#ffffc0;strokeColor=#ff0000;" vertex="1" parent="1">
          <mxGeometry x="280" y="2980" width="120" height="40" as="geometry" />
        </mxCell>
        <mxCell id="ErB6ZL6YeuMFfGsubgFn-116" style="edgeStyle=orthogonalEdgeStyle;rounded=0;orthogonalLoop=1;jettySize=auto;html=1;" edge="1" parent="1" source="ErB6ZL6YeuMFfGsubgFn-113" target="ErB6ZL6YeuMFfGsubgFn-117">
          <mxGeometry relative="1" as="geometry">
            <mxPoint x="340" y="3180" as="targetPoint" />
          </mxGeometry>
        </mxCell>
        <mxCell id="ErB6ZL6YeuMFfGsubgFn-113" value="Afficher &quot;Dans une secondes il sera &quot;,heures,&quot;heure(s) &quot;,minutes,&quot;minute(s) et &quot;,secondes,&quot;seconde(s)&quot;" style="rounded=1;whiteSpace=wrap;html=1;arcSize=40;fontColor=#000000;fillColor=#ffffc0;strokeColor=#ff0000;" vertex="1" parent="1">
          <mxGeometry x="200" y="3060" width="280" height="70" as="geometry" />
        </mxCell>
        <mxCell id="ErB6ZL6YeuMFfGsubgFn-114" style="edgeStyle=orthogonalEdgeStyle;rounded=0;orthogonalLoop=1;jettySize=auto;html=1;entryX=0.068;entryY=-0.043;entryDx=0;entryDy=0;entryPerimeter=0;" edge="1" parent="1" source="ErB6ZL6YeuMFfGsubgFn-104" target="ErB6ZL6YeuMFfGsubgFn-113">
          <mxGeometry relative="1" as="geometry">
            <Array as="points">
              <mxPoint x="220" y="2895" />
              <mxPoint x="220" y="2995" />
              <mxPoint x="219" y="2995" />
            </Array>
          </mxGeometry>
        </mxCell>
        <mxCell id="ErB6ZL6YeuMFfGsubgFn-115" value="Non" style="edgeLabel;html=1;align=center;verticalAlign=middle;resizable=0;points=[];" vertex="1" connectable="0" parent="ErB6ZL6YeuMFfGsubgFn-114">
          <mxGeometry x="-0.8565" y="-2" relative="1" as="geometry">
            <mxPoint as="offset" />
          </mxGeometry>
        </mxCell>
        <mxCell id="ErB6ZL6YeuMFfGsubgFn-117" value="" style="ellipse;html=1;shape=endState;fillColor=#000000;strokeColor=#ff0000;" vertex="1" parent="1">
          <mxGeometry x="325" y="3165" width="30" height="30" as="geometry" />
        </mxCell>
      </root>
    </mxGraphModel>
  </diagram>
</mxfile>
